<?xml version="1.0" encoding="utf-8"?><!-- Uploaded to: SVG Repo, www.svgrepo.com, Generator: SVG Repo Mixer Tools -->
<svg fill="#ffffff"
  width="800px" 
  height="800px" 
  viewBox="0 0 1.5 1.5" 
  version="1.2" 
  baseProfile="tiny" xmlns="http://www.w3.org/2000/svg">
  <path d="m1.094 0.752 -0.265 -0.153 0.134 -0.321a0.063 0.063 0 0 0 -0.056 -0.09 0.065 0.065 0 0 0 -0.039 0.013l-0.004 0.004 -0.469 0.444a0.063 0.063 0 0 0 0.011 0.1l0.265 0.153 -0.135 0.325a0.063 0.063 0 0 0 0.101 0.07l0.469 -0.444a0.063 0.063 0 0 0 -0.011 -0.1"/><path fill="#000000" d="M0.906 0.25zm-0.001 0 -0.157 0.375 0.313 0.181 -0.469 0.444 0.157 -0.375 -0.313 -0.181zm0 -0.125a0.125 0.125 0 0 0 -0.086 0.035l-0.469 0.444a0.125 0.125 0 0 0 -0.038 0.105 0.125 0.125 0 0 0 0.061 0.093l0.217 0.127 -0.114 0.274a0.125 0.125 0 0 0 0.116 0.173 0.125 0.125 0 0 0 0.086 -0.035l0.469 -0.444a0.125 0.125 0 0 0 0.038 -0.105 0.125 0.125 0 0 0 -0.061 -0.093l-0.218 -0.126 0.112 -0.269A0.125 0.125 0 0 0 0.906 0.125"/></svg>
