<svg width="38" height="38" xmlns="http://www.w3.org/2000/svg"><g class="layer"><path fill="#fff" d="M26 13h-1.28l-.32-1a3 3 0 0 0-2.84-2h-5.12a3 3 0 0 0-2.84 2.05l-.32 1H12a3 3 0 0 0-3 3v8a3 3 0 0 0 3 3h14a3 3 0 0 0 3-3v-8A3 3 0 0 0 26 13m1 11a1 1 0 0 1-1 1H12a1 1 0 0 1-1-1v-8a1 1 0 0 1 1-1h2a1 1 0 0 0 1-.68l.54-1.64a1 1 0 0 1 .95-.68h5.12a1 1 0 0 1 .95.68l.54 1.64a1 1 0 0 0 .9.68h2a1 1 0 0 1 1 1zm-8-9a4 4 0 1 0 4 4 4 4 0 0 0-4-4m0 6a2 2 0 1 1 2-2 2 2 0 0 1-2 2"/><path d="M13.494 1.588H1.586v11.904m0 11.113v11.907h11.905m23.02-11.907v11.907H24.604m11.907-23.019V1.587H24.604" fill="none" stroke="#fff" stroke-linecap="round" stroke-linejoin="round" stroke-width="2"/></g></svg>
